<?xml version="1.0" encoding="UTF-8"?>
<svg width="1200px" height="630px" viewBox="0 0 1200 630" version="1.1" xmlns="http://www.w3.org/2000/svg" xmlns:xlink="http://www.w3.org/1999/xlink">
  <title>Deno Doc</title>
  <g id="deno_doc" stroke="none" stroke-width="1" fill="none" fill-rule="evenodd">
    <rect fill="#FFFFFF" x="0" y="0" width="1200" height="630"></rect>
    <g id="logo" transform="translate(103.000000, 136.000000)" fill="#000000" fill-rule="nonzero">
      <g id="logo_group" transform="translate(179.500000, 179.500000) scale(-1, 1) rotate(-180.000000) translate(-179.500000, -179.500000) translate(0.000000, -0.000000)">
        <path d="M165.372225,358.907724 C164.533389,358.819429 161.840282,358.510397 159.41207,358.28966 C124.887321,354.669569 90.892363,340.056764 63.1666052,316.835205 C58.0452868,312.59705 46.3898727,300.942124 42.1515403,295.82102 C19.1939064,268.405454 5.77252045,237.634682 0.827799299,201.213036 C-0.2759331,193.134053 -0.2759331,165.850929 0.827799299,157.771946 C5.77252045,121.350301 19.1939064,90.5795287 42.1515403,63.1639628 C46.3898727,58.0428587 58.0452868,46.3879321 63.1666052,42.149777 C90.583318,19.1931035 121.355377,5.77227897 157.778546,0.827764671 C165.857868,-0.275921557 193.142132,-0.275921557 201.221454,0.827764671 C237.644623,5.77227897 268.416682,19.1931035 295.833395,42.149777 C300.954713,46.3879321 312.610127,58.0428587 316.84846,63.1639628 C339.806094,90.5795287 353.22748,121.350301 358.172201,157.771946 C359.275933,165.850929 359.275933,193.134053 358.172201,201.213036 C353.22748,237.634682 339.806094,268.405454 316.84846,295.82102 C312.610127,300.942124 300.954713,312.59705 295.833395,316.835205 C268.504981,339.703584 237.423876,353.300998 201.486349,358.11307 C197.601211,358.64284 191.950101,358.863577 181.486718,358.951872 C173.495696,359.040167 166.211062,358.996019 165.372225,358.907724 Z M167.57969,339.836026 C167.57969,334.670775 167.932884,323.457323 168.418527,312.817787 C168.683422,307.608388 168.992468,300.14747 169.124915,296.262494 C169.610558,282.48849 171.067484,246.331729 171.288231,243.108965 L171.508977,239.886202 L169.522259,240.106939 C168.418527,240.195234 167.403093,240.460118 167.226496,240.592561 C167.094048,240.769151 166.785003,243.815325 166.608406,247.391268 C165.813718,263.10776 163.20891,324.075387 162.944014,332.993172 L162.679118,342.793905 L163.915299,342.970495 C164.577538,343.05879 165.68127,343.191232 166.387659,343.23538 L167.57969,343.279527 L167.57969,339.836026 Z M209.830566,340.895565 C209.874716,340.851418 210.007163,327.518888 210.139611,311.272627 C210.316209,294.982218 210.536955,280.369412 210.669403,278.780104 C210.801851,277.146649 210.757702,275.73393 210.536955,275.645635 C210.360358,275.513193 209.256625,275.513193 208.152893,275.645635 L206.122025,275.822225 L205.81298,288.669133 C205.636383,295.776872 205.415637,303.635118 205.327338,306.19567 C204.974144,314.009769 204.665099,340.542386 204.929994,341.204597 C205.106592,341.690219 205.592234,341.734367 207.446504,341.425334 C208.726834,341.16045 209.786417,340.939713 209.830566,340.895565 Z M107.713245,326.10617 C107.978141,325.708843 110.053157,301.383598 112.613817,269.553287 C113.452653,258.737162 114.29149,248.848134 114.423938,247.612005 C114.644684,245.360485 114.600535,245.27219 113.187757,244.389241 C112.39307,243.903619 111.598383,243.506292 111.421786,243.506292 C111.289338,243.506292 111.024442,244.654126 110.891994,246.066844 C110.273904,251.806013 107.889842,279.530611 106.212169,299.573553 C105.240884,311.360922 104.357898,321.912162 104.22545,323.059996 C104.004704,325.002483 104.048853,325.179073 105.196735,325.797138 C106.609512,326.547644 107.4042,326.680086 107.713245,326.10617 Z M229.256257,317.232532 C230.492437,316.791058 230.624885,316.570321 230.88978,314.053916 C231.331273,309.639171 231.198826,288.53669 230.713183,288.53669 C229.432854,288.53669 226.783896,290.037704 226.563149,290.876505 C226.430702,291.406275 226.298254,297.675212 226.298254,304.782952 C226.298254,319.130873 226.121657,318.292071 229.256257,317.232532 Z M147.712507,315.157602 C147.712507,313.965621 148.021552,307.387651 148.374746,300.456502 C148.727941,293.525352 149.125284,284.74001 149.301882,280.943329 C149.610927,273.261673 149.699225,273.526558 146.741222,273.349968 C145.284296,273.305821 145.284296,273.305821 145.195997,275.513193 C145.107698,276.749322 144.886952,280.59015 144.622056,284.121946 C144.40131,287.653741 143.871518,295.29125 143.518324,301.118713 C143.165129,306.946177 142.723636,312.729493 142.591189,313.965621 C142.326293,316.172994 142.370442,316.261288 143.562473,316.702763 C144.268862,316.967648 145.505042,317.188385 146.299729,317.188385 C147.712507,317.232532 147.712507,317.232532 147.712507,315.157602 Z M270.182654,309.109402 L271.68373,308.491337 L271.992775,302.575579 C272.125223,299.352815 272.213521,292.377519 272.125223,287.123972 L271.992775,277.499828 L270.138505,278.426925 L268.284234,279.309874 L268.151786,293.966827 C268.063488,302.04581 268.107637,308.888664 268.195936,309.197697 C268.372533,309.859908 268.372533,309.859908 270.182654,309.109402 Z M189.566039,303.326086 C189.830935,303.061201 190.449025,281.649688 190.493175,270.789416 L190.537324,264.255593 L188.462307,264.564626 C187.270276,264.697068 186.298992,264.82951 186.254842,264.873658 C186.122394,264.961953 184.797916,297.675212 184.797916,300.853829 L184.797916,304.12074 L187.04953,303.855855 C188.329859,303.679266 189.433592,303.458528 189.566039,303.326086 Z M291.241868,300.191617 C291.77166,299.573553 291.859958,289.905261 291.992406,236.575143 C292.124854,175.342631 292.124854,173.753323 291.330167,173.753323 C290.844524,173.753323 290.182285,174.018207 289.784941,174.32724 C289.122702,174.812862 289.034403,180.154703 288.813657,232.46943 C288.63706,264.167299 288.416313,292.951435 288.283865,296.439084 L288.018969,302.796317 L289.299299,301.86922 C290.049837,301.339451 290.888674,300.588944 291.241868,300.191617 Z M251.63995,291.14139 C251.860696,290.9648 252.081443,288.448396 252.125592,285.578811 C252.346338,275.822225 252.390488,216.002432 252.169741,215.825842 C252.081443,215.737547 251.286755,215.958284 250.403769,216.311464 L248.814395,216.973675 L248.814395,254.543155 L248.814395,292.068486 L250.050575,291.803602 C250.712814,291.627012 251.419203,291.362127 251.63995,291.14139 Z M129.787893,288.669133 C129.920341,287.477152 130.141087,284.784157 130.273535,282.576785 C130.405983,280.41356 130.715028,275.469046 130.979924,271.628217 C131.509715,263.858266 131.421417,263.372644 128.904907,263.372644 C127.580428,263.372644 127.403831,263.505087 127.227234,264.82951 C126.785741,267.43421 125.240515,289.154755 125.461262,289.507934 C125.682008,289.816966 127.977772,290.611621 129.037355,290.699915 C129.302251,290.744063 129.655445,289.816966 129.787893,288.669133 Z M56.7649573,277.411533 C57.2505995,272.731904 58.221884,262.93117 58.9282728,255.646841 C59.6788108,248.362512 60.2969009,242.181869 60.2969009,241.916984 C60.2969009,241.387215 56.8974052,239.709612 56.5442108,240.062791 C56.3234643,240.283529 51.9085347,279.354021 51.9085347,281.119919 C51.9085347,282.179458 55.3080305,286.63835 55.7495235,286.152728 C55.8819713,286.064433 56.3234643,282.13531 56.7649573,277.411533 Z M229.874347,272.776051 L231.154676,272.025544 L231.198826,262.489695 C231.242975,257.280296 231.331273,251.452833 231.331273,249.554493 C231.419572,245.581222 230.93393,244.919011 228.549868,245.757812 L227.18124,246.243434 L227.18124,250.040115 C227.18124,252.159192 227.048792,258.295688 226.872195,263.725824 L226.607299,273.526558 L227.622733,273.526558 C228.152524,273.526558 229.167958,273.173378 229.874347,272.776051 Z M76.1464982,255.646841 C76.9411855,247.170531 78.2215151,232.866757 79.0603517,223.860678 L80.5614278,207.526121 L78.8396052,205.804371 L77.161932,204.08262 L76.8528869,207.570269 C76.6762897,209.512757 75.7933038,218.518836 74.8661686,227.613211 C73.9390334,236.707585 72.6145545,249.907672 71.9523151,256.927117 L70.7161348,269.641582 L72.4379573,271.23089 C73.9831827,272.687756 74.1597799,272.731904 74.4688249,271.93725 C74.6454221,271.495775 75.3959602,264.167299 76.1464982,255.646841 Z M43.0786755,250.305 C44.04996,241.607952 46.6106192,218.474689 48.818084,198.917369 C51.0255488,179.360049 53.1005657,160.509088 53.4979094,156.977292 C53.8511037,153.445496 54.4691939,148.103655 54.8223882,145.057481 C55.4404784,139.892229 55.4404784,139.53905 54.7340897,139.00928 C53.6745065,138.214626 53.2330136,138.302921 53.2330136,139.230018 C53.2330136,139.627345 52.8356699,142.982551 52.3500277,146.602642 C51.5553403,152.650842 50.2308615,162.89305 47.2728586,185.893871 C46.6547685,190.529353 45.4627375,199.75617 44.6239009,206.422435 C43.740915,213.0887 42.4605854,223.021876 41.7541966,228.49616 C41.0478079,233.970443 39.8557769,243.329703 39.1052389,249.377903 C38.3105516,255.381956 37.8249093,260.723798 37.9573572,261.297714 C38.2664023,262.489695 40.8712107,266.639556 41.1361065,266.374671 C41.2244051,266.242229 42.107391,259.046194 43.0786755,250.305 Z M29.568991,231.277449 C30.2312304,225.979755 31.4674107,216.311464 32.3062473,209.733494 C33.1450839,203.199671 34.204667,195.032393 34.6903093,191.63304 L35.5291459,185.452397 L34.6020107,184.657743 C34.0722191,184.216268 33.5424276,184.039678 33.3658304,184.216268 C33.1892332,184.392858 32.8360389,186.158756 32.5711431,188.101244 C32.3062473,190.043732 30.6727234,201.389626 28.9067515,213.26529 L25.7721515,234.89754 L26.7875853,237.899566 C27.3173769,239.533022 27.8913177,240.857445 28.0237656,240.857445 C28.2003628,240.857445 28.8626022,236.530995 29.568991,231.277449 Z M271.948626,237.060765 C272.566716,236.442701 272.655014,233.705559 272.655014,213.44188 L272.655014,190.529353 L271.418834,190.529353 C268.725727,190.529353 268.769876,189.867142 268.593279,214.942893 L268.460831,237.767124 L269.873609,237.767124 C270.624147,237.767124 271.595431,237.458092 271.948626,237.060765 Z M175.305817,229.158371 C185.283558,227.657358 193.980969,224.876069 202.590082,220.461324 C208.152893,217.59174 210.801851,215.605105 216.982752,209.689346 C226.165806,200.904004 231.816916,193.222348 237.114831,182.362075 C244.840958,166.557289 247.84311,152.562547 251.63995,115.037215 C253.361772,98.2170374 255.613386,67.7111501 256.099028,55.217422 C256.231476,51.5973311 256.540521,45.6374255 256.805417,41.9731872 C257.291059,34.2032362 257.865,35.262775 251.021859,31.9517163 C241.529761,27.3603816 232.390857,24.1817652 220.338099,21.2238862 C205.592234,17.6037953 196.055986,16.4559617 181.486718,16.4118142 L170.890887,16.3676668 L170.979186,21.4446234 C170.979186,24.2259127 171.244082,30.7155877 171.508977,35.7925444 C172.833456,60.3826735 172.568561,91.4183302 170.846738,108.635835 C169.875453,118.524864 167.977034,130.53297 166.917451,133.181817 C166.696704,133.755734 167.712138,134.241356 172.082918,135.742369 C180.073941,138.523658 187.00538,142.011307 188.064963,143.733057 C189.963383,146.999969 186.563887,151.679598 182.237256,151.679598 C181.486718,151.679598 179.235104,150.884944 177.160087,149.957848 C167.270645,145.41066 147.447611,140.068819 136.012943,138.876838 C128.11022,138.038036 115.836715,138.523658 107.315901,140.068819 C102.680225,140.907621 94.3801574,144.04209 87.4487179,147.618033 C79.4576954,151.767893 74.5571235,157.286324 73.1001968,163.820147 C72.3055094,167.351943 72.5262559,174.415535 73.5416897,178.388805 C74.6454221,182.759402 77.7358728,189.116635 80.5614278,192.825021 C93.1439771,209.380314 119.103763,223.728235 145.725789,228.761044 C154.202453,230.350353 166.211062,230.526942 175.305817,229.158371 Z M311.506395,227.7898 C313.09577,227.127589 313.272367,226.950999 313.272367,225.449986 C313.360665,213.397732 313.09577,185.849724 312.875023,184.70189 C312.830874,184.304563 310.53511,184.260416 309.563826,184.613595 C308.945736,184.834333 308.857437,187.218295 308.857437,206.68732 C308.857437,220.637914 309.034034,228.49616 309.29893,228.49616 C309.519677,228.49616 310.53511,228.187128 311.506395,227.7898 Z M330.799637,203.552851 L332.389012,202.890639 L332.079967,166.336551 C331.726772,119.760993 331.682623,118.392422 330.00495,114.375004 C327.267694,107.797034 327.400141,106.47261 327.665037,135.345042 C327.753336,149.781258 327.974082,164.394064 328.062381,167.793417 C328.150679,171.192771 328.238978,180.772767 328.283127,189.116635 C328.283127,199.182253 328.415575,204.215063 328.72462,204.215063 C328.989516,204.215063 329.916651,203.906031 330.799637,203.552851 Z M65.2857714,192.560136 C65.5506672,188.984193 65.4623686,188.631013 64.182039,185.805576 L62.7692615,182.80355 L62.23947,187.218295 C61.4006333,194.281887 61.4006333,194.590919 63.0783066,195.650458 C63.8288446,196.180227 64.6235319,196.533407 64.7559798,196.445112 C64.8884277,196.356817 65.1533235,194.590919 65.2857714,192.560136 Z M38.0015065,165.939224 C38.3988502,162.319133 41.4893009,138.302921 43.0786755,126.515552 C45.4627375,108.282656 45.6393347,105.677956 44.5797516,106.781643 C44.4473037,106.914085 43.4318699,113.05058 42.3722868,120.423204 C35.4849966,168.014154 35.5291459,167.705122 36.1030868,168.058302 C37.2951178,168.852956 37.6924614,168.411481 38.0015065,165.939224 Z M69.7889996,145.719693 C70.0538953,144.616006 71.3342249,132.652048 71.3342249,131.195182 C71.3342249,129.959053 69.7448503,128.81122 69.0384615,129.517579 C68.8177151,129.738316 68.2437742,133.490849 67.8022813,137.817299 C67.316639,142.187897 66.8309967,146.735084 66.6985489,147.927065 L66.4336531,150.134438 L67.9788784,148.36854 C68.8618644,147.397296 69.6565517,146.205315 69.7889996,145.719693 Z M105.417481,129.076104 C105.903124,128.63463 106.212169,126.868732 106.609512,122.100807 C107.271752,113.492055 107.36005,114.154267 105.549929,114.154267 C103.695659,114.154267 103.739808,114.021824 103.121718,121.791775 C102.503628,129.694169 102.503628,129.605895 103.695659,129.605895 C104.2696,129.605895 105.020138,129.340989 105.417481,129.076104 Z M140.383724,128.413893 C140.472022,127.972418 140.692769,125.323571 140.869366,122.542282 C141.001814,119.760993 141.399158,113.492055 141.752352,108.635835 C142.988532,90.8002659 143.032682,88.548746 142.282144,88.548746 C141.443307,88.548746 141.355008,89.2109578 140.383724,101.792981 C140.030529,107.00238 139.36829,115.213805 138.926797,120.025877 C138.529453,124.837949 138.264558,128.855367 138.397005,128.943662 C138.882648,129.473431 140.162977,129.076104 140.383724,128.413893 Z M57.3830474,119.937582 C57.6479432,119.540255 59.3256164,105.413072 61.4006333,86.1206363 C62.0187235,80.2931731 62.6368136,74.686447 62.7692615,73.6269082 L62.990008,71.7285679 L61.8862756,72.4349271 C61.047439,73.008844 60.7383939,73.5827608 60.7383939,74.5981521 C60.7383939,77.3794414 58.8399742,95.7006328 57.3830474,106.914085 C56.5442108,113.271318 55.8819713,118.878044 55.8819713,119.407813 C55.8819713,120.334909 56.9415544,120.688089 57.3830474,119.937582 Z M312.168634,101.483949 L311.859589,83.0303149 L310.755857,81.3968593 C308.239347,77.6884736 308.371795,76.9821144 308.504243,97.6431205 L308.592541,116.582376 L310.226065,118.259979 C311.109051,119.142928 311.992037,119.893435 312.168634,119.893435 C312.301082,119.893435 312.301082,111.593714 312.168634,101.483949 Z M271.330536,72.2141899 C271.551282,46.5645219 271.507133,44.5778867 270.800744,43.7832326 C270.359251,43.2976107 269.961907,42.9885786 269.82946,43.1210209 C269.520414,43.4742005 269.078921,99.4090185 269.432116,99.7180507 C269.608713,99.8946405 270.050206,99.9829354 270.44755,99.9387879 C271.02149,99.8063456 271.153938,96.6718767 271.330536,72.2141899 Z M127.138935,89.7848746 C127.44798,87.0477328 128.551712,73.9359404 128.993205,67.7552975 C129.258101,63.6054373 129.258101,63.4729949 128.286817,63.1639628 C127.757025,62.987373 127.138935,63.0315205 126.962338,63.2522577 C126.653293,63.5612898 125.682008,73.3620235 124.489977,88.4604511 L124.180932,92.080542 L125.54956,92.080542 C126.82989,92.080542 126.918189,91.9922471 127.138935,89.7848746 Z M92.4375884,74.3332674 C92.7466335,74.0242353 92.9673799,72.9205491 92.9673799,71.8168628 C92.9673799,70.6690291 93.4971715,64.7091235 94.0711123,58.5284806 C95.7487856,41.6200076 95.8812335,39.3243403 95.1306954,39.7658148 C93.9828137,40.4280265 92.9673799,41.4434178 93.1881264,41.7083025 C93.276425,41.8848923 93.0998278,44.0922648 92.7466335,46.6086694 C92.4375884,49.1692214 92.0402447,53.3190817 91.8636475,55.8796337 C91.6870504,58.4401857 91.2897067,63.1198154 90.9365123,66.2542842 C90.0976757,73.9800878 90.141825,74.8630368 91.1131095,74.8630368 C91.5546025,74.8630368 92.1285433,74.6422996 92.4375884,74.3332674 Z M113.320205,44.6220342 C113.452653,43.6507903 113.717549,40.0306995 113.894146,36.5871984 C114.203191,29.9650811 114.070743,29.4794591 112.260622,30.8480301 C111.730831,31.2453571 111.377636,32.9229602 110.847845,37.9557694 C109.92071,47.0501439 109.87656,46.6969643 111.598383,46.5203745 C112.878712,46.3879321 113.05531,46.2113423 113.320205,44.6220342 Z" id="Shape"></path>
        <path d="M97.5589067,208.011743 C92.9673799,206.025108 92.6141856,199.800318 96.9408166,197.592945 C100.075417,196.003637 103.254166,196.754144 104.88769,199.491286 C107.978141,204.524095 102.945121,210.351558 97.5589067,208.011743 Z" id="Path"></path>
        <path d="M127.492129,203.773588 C123.253797,201.168889 123.253797,194.899951 127.492129,192.295251 C131.686312,189.778847 137.116676,193.089906 137.116676,198.122715 C137.116676,202.978934 131.553865,206.245845 127.492129,203.773588 Z" id="Path"></path>
      </g>
    </g>
    <text id="title" font-family="Inter-Bold, Inter" font-size="112" font-weight="bold" fill="#111827">
      <tspan x="496.125475" y="294.711027">Deno Doc</tspan>
    </text>
    <text id="subtitle" font-family="Inter-Regular, Inter" font-size="48" font-weight="normal" fill="#111827">
      <tspan x="496.125475" y="394.038023">Documentation Generator</tspan>
    </text>
  </g>
</svg>